# xmcd
#
# Track frame offsets:
#	150
#	21051
#	35612
#	54165
#	71673
#	88819
#	105143
#	115040
#	135334
#	151644
#	167160
#
# Disc length: 2729 seconds
#
# Revision: 1
# Processed by: cddbd v1.5.1PL0 Copyright (c) Steve Scherf et al.
# Submitted via: audiograbber 1.83.01
#
DISCID=790aa70b
DTITLE=Marcus Eldridge - Let Me Out Here
DYEAR=2004
DGENRE=Country
TTITLE0=Hey Virginia
TTITLE1=Texas 'N' Louisian'
TTITLE2=Heart of the Night
TTITLE3=Let Me Out Here
TTITLE4=All Things Texan
TTITLE5=Run Away
TTITLE6=Wind Up With You
TTITLE7=Half Past You
TTITLE8=Damn September
TTITLE9=Where You Are
TTITLE10=We Got All Night
EXTD=
EXTT0=
EXTT1=
EXTT2=
EXTT3=
EXTT4=
EXTT5=
EXTT6=
EXTT7=
EXTT8=
EXTT9=
EXTT10=
PLAYORDER=
